<?xml version="1.0" encoding="UTF-8"?>
<svg id="Layer_1" xmlns="http://www.w3.org/2000/svg" version="1.1" viewBox="0 0 461.05 92.63">
  <!-- Generator: Adobe Illustrator 29.1.0, SVG Export Plug-In . SVG Version: 2.1.0 Build 142)  -->
  <defs>
    <style>
      .st0 {
        fill: #fff;
      }
    </style>
  </defs>
  <path class="st0" d="M6.78,83.08l6.91,2.9,10.85-25.74h29.94l10.77,24.36,6.85-3.04L39,6.67,6.78,83.08ZM51.16,52.75h-23.46l11.45-27.17,12.01,27.17Z"/>
  <polygon class="st0" points="109.81 8.97 102.31 8.97 102.31 81.87 139.29 81.87 139.29 74.37 109.81 74.37 109.81 8.97"/>
  <path class="st0" d="M205.53,45.78c8.29-5.08,8.96-13.59,9.01-14.83.13-2.08.15-9.27-5.14-14.89-4.07-4.33-10.12-6.52-17.99-6.52-.44,0-.71,0-.79-.01h-18.24s0,32.51,0,32.51h-10.86v7.5h10.86v32.51h18.12s.14,0,.14,0c.09,0,.36-.01.76-.01,7.87,0,13.92-2.2,17.99-6.53,5.29-5.62,5.27-12.78,5.14-14.86-.05-1.24-.73-9.76-9.01-14.85ZM207.05,30.73s-.1,2.73-1.95,5.42c-2.63,3.79-7.47,5.77-14.38,5.89-.22,0-.43,0-.65,0h-10.18s0-25.01,0-25.01h10.42c.15,0,.53.02,1.1.02,5.71,0,9.93,1.4,12.53,4.16,3.18,3.39,3.19,8.08,3.11,9.52ZM179.89,74.55v-25.01h10.78c6.86.11,11.68,2.04,14.34,5.75,1.91,2.66,2.03,5.4,2.04,5.7v.07c.06.94.15,5.82-3.12,9.3-2.59,2.76-6.8,4.16-12.53,4.16-.53,0-.91.02-1.07.03h-10.46Z"/>
  <rect class="st0" x="248.18" y="9.03" width="7.49" height="72.84"/>
  <polygon class="st0" points="340.89 66.41 288.9 6.03 288.9 81.87 296.4 81.87 296.4 26.23 348.39 86.6 348.39 9.05 340.89 9.05 340.89 66.41"/>
  <path class="st0" d="M416.76,7.93c-20.68,0-37.51,16.83-37.51,37.52s16.83,37.52,37.51,37.52,37.52-16.83,37.52-37.52-16.83-37.52-37.52-37.52ZM416.76,15.43c16.56,0,30.02,13.46,30.02,30.02s-13.47,30.02-30.02,30.02-30.01-13.47-30.01-30.02,13.46-30.02,30.01-30.02Z"/>
</svg>