<?xml version="1.0" encoding="UTF-8"?>
<svg id="Layer_1" xmlns="http://www.w3.org/2000/svg" version="1.1" viewBox="0 0 80 80">
  <!-- Generator: Adobe Illustrator 29.1.0, SVG Export Plug-In . SVG Version: 2.1.0 Build 142)  -->
  <defs>
    <style>
      .st0 {
        fill: #fff;
      }
    </style>
  </defs>
  <path class="st0" d="M32.32,36.29c.76-.56,1.14-1.47,1.14-2.74,0-.7-.13-1.28-.38-1.73-.25-.45-.59-.8-1.01-1.06-.42-.25-.91-.43-1.45-.53-.56-.1-1.13-.15-1.71-.15h-6.2v7.04h6.7c1.18,0,2.15-.29,2.91-.85Z"/>
  <path class="st0" d="M53.13,36.63c-.96,0-1.75.16-2.38.48-.63.32-1.14.72-1.52,1.2-.38.48-.65.98-.8,1.52-.15.53-.25,1.01-.27,1.43h9.74c-.28-1.51-.78-2.67-1.5-3.45-.72-.79-1.81-1.18-3.27-1.18Z"/>
  <path class="st0" d="M29.91,41.64h-7.21v8.27h7.08c.62,0,1.25-.06,1.86-.19.59-.13,1.11-.34,1.56-.63.45-.3.81-.7,1.08-1.2.27-.5.4-1.15.4-1.94,0-1.54-.44-2.65-1.31-3.31-.87-.66-2.03-.99-3.46-.99Z"/>
  <path class="st0" d="M59.79,4.03H20.21C10.8,4.03,3.14,11.69,3.14,21.1v37.8c0,9.41,7.66,17.07,17.07,17.07h39.58c9.41,0,17.07-7.66,17.07-17.07V21.1c0-9.41-7.66-17.07-17.07-17.07ZM47.13,26.47h12.17v3.38h-12.17v-3.38ZM40.41,50.27c-.59,1.11-1.38,2.02-2.38,2.72-1,.7-2.14,1.22-3.42,1.56-1.29.34-2.61.51-3.94.5h-14.59v-30.11h14.17c1.43,0,2.74.13,3.92.38,1.18.25,2.19.67,3.04,1.24s1.5,1.34,1.96,2.3c.47.96.7,2.14.7,3.54,0,1.52-.35,2.78-1.03,3.8-.69,1.01-1.71,1.84-3.06,2.49,1.86.53,3.24,1.47,4.15,2.8.91,1.33,1.37,2.94,1.37,4.83,0,1.52-.29,2.83-.89,3.94ZM63.88,45.07h-15.73c.08,1.93.57,3.34,1.47,4.21.9.87,2.19,1.31,3.88,1.31,1.21,0,2.25-.3,3.12-.91.87-.6,1.41-1.24,1.6-1.92h5.27c-.84,2.62-2.14,4.48-3.88,5.61-1.74,1.12-3.85,1.69-6.33,1.69-1.71,0-3.26-.27-4.64-.82-1.38-.55-2.54-1.33-3.5-2.34-.96-1.01-1.7-2.22-2.21-3.62s-.78-2.95-.78-4.64.27-3.15.8-4.55c.53-1.41,1.29-2.62,2.28-3.65.98-1.03,2.16-1.83,3.52-2.42,1.36-.59,2.88-.89,4.53-.89,1.86,0,3.47.36,4.85,1.08,1.38.72,2.51,1.68,3.39,2.89.89,1.21,1.53,2.59,1.92,4.13.39,1.55.53,3.16.42,4.85Z"/>
</svg>