<?xml version="1.0" encoding="UTF-8"?>
<svg id="Layer_1" xmlns="http://www.w3.org/2000/svg" version="1.1" viewBox="0 0 80 80">
  <!-- Generator: Adobe Illustrator 29.1.0, SVG Export Plug-In . SVG Version: 2.1.0 Build 142)  -->
  <path d="M59.79,75.97H20.21c-9.41,0-17.07-7.66-17.07-17.07V21.1c0-9.41,7.66-17.07,17.07-17.07h39.59c9.41,0,17.07,7.66,17.07,17.07v37.8c0,9.41-7.66,17.07-17.07,17.07h0ZM20.21,11.03c-5.55,0-10.07,4.52-10.07,10.07v37.8c0,5.55,4.52,10.07,10.07,10.07h39.59c5.55,0,10.07-4.52,10.07-10.07V21.1c0-5.55-4.52-10.07-10.07-10.07,0,0-39.59,0-39.59,0Z"/>
  <path d="M40,58.56c-10.24,0-18.56-8.33-18.56-18.56s8.33-18.56,18.56-18.56,18.56,8.33,18.56,18.56-8.33,18.56-18.56,18.56ZM40,28.44c-6.38,0-11.56,5.19-11.56,11.56s5.19,11.56,11.56,11.56,11.56-5.19,11.56-11.56-5.19-11.56-11.56-11.56Z"/>
  <circle cx="60.92" cy="20.05" r="4.89"/>
</svg>