<?xml version="1.0" encoding="UTF-8"?>
<svg id="Layer_1" xmlns="http://www.w3.org/2000/svg" version="1.1" viewBox="0 0 24 24">
  <!-- Generator: Adobe Illustrator 29.1.0, SVG Export Plug-In . SVG Version: 2.1.0 Build 142)  -->
  <defs>
    <style>
      .st0 {
        fill: #fff;
      }
    </style>
  </defs>
  <path class="st0" d="M6.17,8.01H1.05c-.15,0-.27.12-.27.27v7.44c0,.15.12.27.27.27h5.12s.09.01.12.03l7.4,3.76c.18.09.4-.04.4-.24V4.46c0-.2-.21-.33-.4-.24l-7.4,3.76s-.08.03-.12.03Z"/>
  <path class="st0" d="M19.37,20.26l-1.79-.89c3.63-7.33.04-14.67,0-14.74l1.78-.9c.17.33,4.09,8.28,0,16.53Z"/>
</svg>