<?xml version="1.0" encoding="UTF-8"?>
<svg id="Layer_1" xmlns="http://www.w3.org/2000/svg" version="1.1" viewBox="0 0 80 80">
  <!-- Generator: Adobe Illustrator 29.1.0, SVG Export Plug-In . SVG Version: 2.1.0 Build 142)  -->
  <defs>
    <style>
      .st0 {
        fill: #fff;
      }
    </style>
  </defs>
  <path class="st0" d="M59.79,4.03H20.21C10.8,4.03,3.14,11.69,3.14,21.1v37.79c0,9.41,7.66,17.07,17.07,17.07h39.58c9.41,0,17.07-7.66,17.07-17.07V21.1c0-9.41-7.66-17.07-17.07-17.07ZM20.21,11.03h39.58c5.55,0,10.07,4.52,10.07,10.07v1.36l-26.36,26.36c-1.93,1.93-5.07,1.93-7,0L10.14,22.46v-1.36c0-5.55,4.52-10.07,10.07-10.07ZM59.79,68.97H20.21c-5.55,0-10.07-4.52-10.07-10.07v-26.94l21.62,21.62c2.27,2.27,5.26,3.41,8.24,3.41s5.97-1.14,8.24-3.41l21.62-21.62v26.94c0,5.55-4.52,10.07-10.07,10.07Z"/>
</svg>